<?xml version="1.0" encoding="UTF-8"?>
<!DOCTYPE svg PUBLIC "-//W3C//DTD SVG 1.0//EN" "http://www.w3.org/TR/2001/REC-SVG-20010904/DTD/svg10.dtd">
<!-- Creator: CorelDRAW 2017 -->
<svg xmlns="http://www.w3.org/2000/svg" xml:space="preserve" width="356px" height="200px" version="1.0" shape-rendering="geometricPrecision" text-rendering="geometricPrecision" image-rendering="optimizeQuality" fill-rule="evenodd" clip-rule="evenodd" viewBox="0 0 35600 20025" xmlns:xlink="http://www.w3.org/1999/xlink">
 <g id="Layer_x0020_1">
  <metadata id="CorelCorpID_0Corel-Layer"/>
  <g id="_1536220819568">
   <path fill="#E6E7E8" d="M0 0l35600 0 0 20025 -35600 0 0 -20025z"/>
   <path fill="#373435" fill-opacity="0.031373" d="M2102 17538c67,103 111,202 155,311 31,64 48,183 198,183 44,0 107,-14 163,-45 63,-33 111,-82 135,-159l61 -201 145 -72 10 10c-19,76 -24,148 -24,206 0,169 145,233 262,233 68,0 128,-33 128,-95 0,-81 -34,-216 -78,-338 68,-68 136,-136 214,-191l12 6c34,144 53,286 53,381 0,92 -41,195 -75,263 -70,132 -194,237 -344,237 -114,0 -240,-57 -327,-163l-5 0c-83,101 -209,194 -412,194l-63 0c-10,134 -39,229 -82,313 -122,237 -480,404 -817,404 -470,0 -705,-272 -705,-632 0,-223 72,-431 184,-577l92 37c-70,134 -116,261 -116,385 0,338 274,499 591,499 293,0 657,-188 722,-404 -24,-237 -114,-348 -250,-565 42,-72 95,-144 160,-220l13 0zm5414 -1273c99,62 196,136 290,221 -53,74 -118,142 -201,201 -94,-76 -189,-142 -286,-212 66,-74 131,-146 197,-210zm51 925c-160,0 -291,105 -291,183 0,167 320,219 702,217 -48,-196 -215,-400 -411,-400zm-359 894c208,0 390,-6 528,-41 155,-39 286,-118 286,-171 0,-15 0,-31 -5,-46 -87,9 -186,9 -274,9 -281,0 -496,-64 -581,-223 -22,-43 -36,-93 -36,-148 0,-153 65,-303 181,-406 97,-84 204,-138 313,-138 196,0 354,159 463,408 60,136 101,292 101,490 0,132 -36,243 -118,326 -153,148 -434,204 -865,204l-197 0 0 0 -51 0c-106,0 -184,-19 -244,-66l-10 0c2,24 5,49 5,72 0,97 -32,220 -97,319 -192,286 -400,410 -579,410 -182,0 -405,-70 -606,-161l36 -70c66,27 155,45 279,45 325,0 751,-313 804,-617 -12,-25 -33,-58 -65,-93 -94,-113 -155,-208 -211,-307 49,-95 92,-171 134,-239l16 -2c139,282 265,445 546,445l43 0 0 0 204 0zm-1406 299c24,-130 26,-276 26,-412l0 -202c0,-377 -48,-925 -87,-1281 68,-75 163,-161 238,-219l21 6c51,449 64,971 64,1450 0,126 -5,250 -17,340 -8,114 -73,200 -214,332l-31 -14zm-1447 -596c7,177 94,317 397,317 189,0 349,-49 526,-133 31,-15 48,-33 48,-50 0,-111 -84,-257 -228,-391 -138,-126 -322,-237 -494,-311 -58,-25 -77,-52 -77,-76 0,-52 68,-159 123,-235l20 -2c196,103 416,255 579,426 148,157 240,315 240,488 0,128 -39,250 -102,361 -216,109 -446,191 -674,191 -276,0 -465,-129 -465,-434 0,-33 0,-85 12,-151l95 0zm-500 -502l172 278c63,103 121,214 121,391l0 227c0,183 -117,379 -306,572 -147,132 -278,188 -399,188 -180,0 -386,-56 -623,-159l26 -70c76,21 163,37 270,37 341,-2 690,-251 850,-556 19,-35 27,-68 27,-91 0,-35 -20,-74 -34,-109 -87,-165 -184,-315 -291,-453 56,-88 111,-173 172,-257l15 2z"/>
   <path fill="#373435" fill-opacity="0.078431" d="M2598 20025l24 0 157 0 254 0 47 0 52 0 38 0 1 0 278 0 61 0 14 0 23 0 87 0 130 0 1 0 39 0 38 0 108 0 14 0 95 0 197 0 80 0 92 0 10 0 88 0 52 0 3 0 209 0 166 0 36 0 0 0 57 0 102 0 77 0 265 0 309 0 53 0 167 0 54 0 87 0 20 0 6 0 41 0 29 0 39 0 123 0 40 0 83 0 12 0 168 0 25 0 88 0 141 0 279 0 56 0 143 0 12 0 195 0 115 0 70 0 84 0 225 0 95 0 1 0 48 0 0 0 147 0 48 0 170 0 17 0 330 0 58 0 0 0 140 0 48 0 24 0 8 0 436 0 49 0 1 0 255 0 69 0 296 0 40 0 41 0 0 0 409 0 0 0 35 0 146 0 17 0 140 0 141 0 61 0 3 0 810 0 262 0 130 0 91 0 222 0 152 0 2432 0 365 0 197 0 65 0 25 0 95 0 218 0 94 0 61 0 64 0 101 0 70 0 94 0 98 0 1 0 144 0 69 0 107 0 8 0 136 0 118 0 37 0 107 0 1 0 45 0 107 0 41 0 127 0 41 0 26 0 40 0 155 0 21 0 251 0 41 0 24 0 26 0 40 0 510 0 928 0 5029 -3555 -165 110 -172 100 -179 88 -186 76 -192 63 -197 51 -203 36 -207 22 -212 8 -299 -15 -156 -24 3076 -2175 -20 9 -21 6 -23 2 -3 0 -3 0 -2 0 -3 -1 -3 0 -3 0 -3 -1 -3 0 -17 -5 559 -396 -21 12 -25 8 -26 2 -272 0 -299 212 37 -212 -127 0 862 -609 -22 12 -25 8 -26 2 -296 0 -300 212 38 -212 -320 0 365 -258 52 -294 7 -25 12 -23 15 -19 19 -16 -899 635 -61 0 -26 -2 -24 -8 -16 -9 338 -239 49 -274 7 -25 11 -22 16 -20 19 -16 -4174 2951 -31 -28 -50 -54 4723 -3339 -1303 663 -48 -87 -54 -84 -59 -79 -65 -75 -69 -71 -73 -65 -79 -61 -82 -55 -86 -50 -89 -44 -93 -38 -96 -32 -99 -25 -101 -18 -104 -11 -106 -4 -149 8 -17 2 3201 -2264 -221 0 157 -111 1034 -1790 1033 -1790 -1033 -1790 -1034 -1790 -2067 0 -2067 0 -216 153 152 -264 -1785 1262 -664 -1151 -2067 0 -2067 0 -217 153 153 -264 -1785 1262 -664 -1151 -2067 0 -2067 0 -217 153 153 -264 -9022 6379 0 157 0 156 0 1027 0 279 0 533 0 33 0 181 0 2 0 433 0 279 0 409 0 500 0 483 0 196 0 33 0 156 0 157 0 76 0 38 0 473 0 439 0 217 0 62 0 86 0 448 0 33 0 180 0 185 0 132 0 145 0 107 0 146 0 341 0 430 0 629 0 208 0 12 0 157 0 157 0 171 0 31 0 167 0 156 0 62 0 95 0 232 0 15 92 0 36 0 9 0 204 0 8 0 13 0 5 0 91 0 20 0 17 0 36 0 125 0 109 0 8 0 142 0 0 0 26 0 1 0 3 0 191 0 140 0 9 0 28 0 13 0 6 0 256 0 63 0 53 0 0 0 90 0 49 0 6 0 78 0 1 0 82 0 12 0 14 0 50 0 101 0 1 0 92 0 226 0 10 0 1 0 18 0 17 0 14 0 32 0z"/>
   <g>
    <g>
     <path fill="#8BC34A" d="M20313 6693l1034 -1790 1033 -1790 2067 0 2067 0 1034 1790 1033 1790 -1033 1790 -1034 1790 -2067 0 -2067 0 -1033 -1790 -1034 -1790z"/>
     <path fill="#69A128" fill-rule="nonzero" d="M20217 6638l2099 -3636 4262 0c711,1229 1424,2459 2131,3691l-2131 3691 -4262 0 -2131 -3691 32 -55zm1226 -1679l-1002 1734 2003 3469 4006 0 2003 -3469 -2003 -3469 -4006 0 -1001 1735z"/>
     <path fill="#8BC34A" d="M7019 6693l1033 -1790 1034 -1790 2067 0 2067 0 1033 1790 1034 1790 -1034 1790 -1033 1790 -2067 0 -2067 0 -1034 -1790 -1033 -1790z"/>
     <path fill="#69A128" fill-rule="nonzero" d="M6923 6638l2099 -3636 4262 0c709,1231 1421,2460 2131,3691 -712,1230 -1422,2460 -2131,3691l-4262 0 -2131 -3691 32 -55zm1225 -1679l-1001 1734 2003 3469 4006 0 2003 -3469 -2003 -3469 -4006 0 -1002 1735z"/>
     <path fill="#FEFEFE" fill-rule="nonzero" d="M9919 8162l-691 -2938 611 0 437 2018 537 -2018 707 0 513 2052 447 -2052 597 0 -707 2938 -636 0 -579 -2197 -584 2197 -652 0z"/>
     <path fill="#FF9800" d="M13666 6693l1034 -1790 1033 -1790 2067 0 2067 0 1033 1790 1034 1790 -1034 1790 -1033 1790 -2067 0 -2067 0 -1033 -1790 -1034 -1790z"/>
     <path fill="#FF7300" fill-rule="nonzero" d="M13570 6638l2099 -3636 4262 0c709,1231 1424,2459 2131,3691 -710,1231 -1422,2460 -2131,3691l-4262 0 -2131 -3691 32 -55zm1225 -1679l-1001 1734 2003 3469 4006 0 2003 -3469 -2003 -3469 -4006 0 -1002 1735z"/>
     <path fill="#FEFEFE" fill-rule="nonzero" d="M23438 8162l0 -2938 2019 0 0 496 -1424 0 0 698 1231 0 0 497 -1231 0 0 1247 -595 0z"/>
     <path fill="#FEFEFE" fill-rule="nonzero" d="M16675 8162l0 -2938 952 0c360,0 595,14 704,44 169,44 310,140 423,288 114,147 170,338 170,572 0,181 -32,332 -97,455 -66,123 -149,219 -249,290 -101,70 -204,116 -307,139 -142,28 -347,42 -615,42l-385 0 0 1108 -596 0zm596 -2442l0 838 323 0c233,0 388,-16 467,-47 79,-31 140,-79 185,-145 44,-66 67,-141 67,-229 0,-107 -32,-196 -94,-265 -63,-70 -141,-114 -238,-132 -70,-13 -212,-20 -425,-20l-285 0z"/>
    </g>
    <g>
     <g>
      <path fill="#AD729B" fill-rule="nonzero" d="M24846 14763c-242,474 -734,799 -1303,799 -807,0 -1462,-655 -1462,-1462 0,-807 655,-1462 1462,-1462 569,0 1061,325 1303,799l1303 -663c-484,-948 -1469,-1598 -2606,-1598 -1614,0 -2923,1309 -2923,2924 0,1615 1309,2924 2923,2924 1137,0 2122,-650 2606,-1598l-1303 -663z"/>
      <path fill="#AD729B" fill-rule="nonzero" d="M26675 13859c72,0 130,-58 130,-129 0,-71 -58,-129 -130,-129l-251 0 44 -249c13,-70 -34,-137 -104,-150 -71,-12 -138,35 -150,105l-52 294 -320 0 40 -229c12,-70 -35,-137 -105,-150 -70,-12 -137,35 -149,105l-49 274 -272 0c-71,0 -129,58 -129,129 0,71 58,129 129,129l227 0 -58 329 -297 0c-71,0 -129,58 -129,129 0,72 58,129 129,129l251 0 -44 249c-12,71 35,138 105,150 8,1 15,2 23,2 61,0 116,-44 127,-107l52 -294 320 0 -40 229c-13,70 34,137 104,150 8,1 16,2 23,2 61,0 116,-44 127,-107l48 -274 272 0c72,0 129,-57 129,-129 0,-71 -57,-129 -129,-129l-226 0 58 -329 296 0zm-616 329l0 0 -321 0 58 -329 321 0 -58 329z"/>
     </g>
     <g>
      <path fill="#63CCF5" d="M9000 16323c197,-3 587,-17 881,-45 292,-29 489,-73 647,-127 159,-55 279,-122 376,-194 97,-73 172,-150 239,-237 66,-86 124,-179 184,-312 61,-133 123,-305 190,-514 66,-211 136,-459 192,-649 55,-190 95,-321 149,-431 54,-111 122,-201 235,-337 114,-135 274,-317 373,-424 100,-108 139,-142 161,-161 22,-20 27,-25 32,-14 6,11 11,38 33,137 23,100 63,272 120,520 57,248 131,572 188,802 58,230 99,365 141,499 42,134 85,267 128,375 42,108 84,191 129,275 45,83 94,166 141,238 47,71 93,131 137,180 43,50 84,89 131,126 47,36 101,72 153,97 51,25 102,42 146,52 44,9 82,13 523,15 441,2 1284,3 1706,4 422,0 423,2 472,-21 49,-22 146,-67 232,-120 86,-54 162,-116 293,-249 131,-133 318,-336 474,-527 155,-191 280,-370 410,-569 131,-200 265,-422 407,-660 142,-239 290,-495 439,-744 150,-250 300,-492 425,-703 126,-210 225,-389 288,-504 63,-115 89,-168 99,-195 10,-27 3,-29 -23,-30 -25,0 -69,1 -380,2 -309,1 -885,1 -1205,10 -319,8 -382,25 -483,60 -101,35 -240,88 -360,149 -119,62 -221,132 -306,200 -85,68 -154,132 -203,194 -49,61 -78,119 -105,188 -27,70 -53,152 -124,382 -72,230 -189,609 -319,1001 -130,391 -272,795 -346,1008 -74,215 -81,239 -88,253 -7,14 -14,20 -26,1 -12,-18 -28,-60 -77,-237 -48,-178 -127,-492 -203,-795 -75,-303 -148,-595 -228,-852 -80,-257 -167,-479 -239,-642 -72,-163 -128,-267 -183,-353 -56,-87 -110,-157 -168,-211 -57,-55 -118,-96 -187,-138 -70,-44 -149,-89 -233,-119 -85,-29 -174,-42 -562,-49 -388,-6 -1075,-6 -1458,-4 -383,1 -463,3 -554,19 -91,15 -193,43 -301,85 -108,42 -221,97 -328,160 -107,64 -208,135 -337,257 -128,122 -284,293 -418,465 -134,171 -246,342 -358,534 -111,191 -222,403 -336,634 -113,230 -230,479 -365,796 -135,315 -289,699 -385,942 -96,243 -135,347 -156,404 -22,57 -27,67 -31,75 -3,7 -5,12 -3,18 1,7 7,13 204,10l0 0zm9976 -4435c-181,-1 -548,6 -733,10 -186,4 -192,4 -233,28 -42,24 -120,69 -211,147 -92,77 -196,186 -279,291 -83,104 -145,205 -220,373 -76,169 -165,405 -240,621 -76,216 -138,412 -201,612 -64,200 -129,404 -213,629 -83,225 -186,471 -270,656 -83,184 -147,308 -195,396 -48,89 -80,142 -109,183 -29,40 -55,67 -78,88 -24,21 -47,35 -60,45 -14,11 -21,16 -13,29 7,12 28,32 51,54 23,22 50,49 74,68 25,19 48,31 70,36 22,5 44,3 90,3 46,0 118,2 194,-7 77,-9 158,-28 245,-71 87,-42 179,-108 271,-189 91,-80 182,-177 297,-339 116,-162 257,-390 388,-620 131,-230 252,-463 375,-704 124,-243 249,-494 393,-776 143,-283 304,-595 435,-853 131,-258 230,-462 282,-569 52,-107 57,-117 61,-125 5,-8 10,-16 -171,-16l0 0zm-3073 4272c-32,-24 -112,-66 -202,-144 -90,-77 -191,-190 -292,-340 -101,-149 -203,-336 -284,-511 -80,-175 -139,-337 -200,-523 -61,-186 -123,-394 -199,-624 -75,-231 -163,-484 -249,-700 -87,-216 -173,-395 -257,-545 -84,-150 -166,-270 -255,-381 -89,-111 -186,-213 -254,-283 -68,-70 -108,-107 -141,-132 -34,-26 -62,-40 -115,-45 -53,-7 -132,-5 -299,-5 -167,1 -425,0 -567,-1 -141,-1 -169,-1 -192,-1 -23,0 -42,2 -37,15 5,12 34,35 94,87 60,52 150,134 234,228 85,93 164,199 245,322 80,123 162,263 234,406 72,143 134,288 195,437 63,148 125,298 178,429 53,130 97,241 164,409 66,168 153,393 224,563 70,170 124,284 195,415 70,130 158,277 233,388 75,111 139,184 205,251 66,66 136,125 202,172 66,47 128,81 176,104 48,22 82,31 137,37 56,5 132,7 273,7 142,1 348,0 458,-3 111,-3 128,-8 96,-32zm-3314 -3674c-39,41 -119,110 -267,256 -149,145 -363,368 -535,561 -171,193 -299,359 -431,546 -131,187 -266,396 -434,668 -167,270 -365,603 -518,868 -153,266 -260,464 -349,596 -90,132 -163,199 -248,241 -85,42 -182,60 -271,69 -89,9 -169,9 -203,5 -35,-5 -25,-15 -8,-72 16,-57 39,-162 103,-384 64,-222 168,-563 275,-862 106,-298 214,-555 305,-761 90,-206 162,-360 268,-556 107,-195 247,-431 380,-624 133,-193 258,-343 393,-486 135,-143 279,-277 383,-363 104,-85 166,-122 225,-149 57,-28 110,-45 171,-54 61,-9 129,-9 197,1 67,11 132,31 197,64 65,34 128,81 184,131 55,50 100,104 135,144 34,40 56,66 69,86 13,20 17,34 -21,75l0 0z"/>
      <path fill="#147FC3" d="M12589 12486c-39,41 -119,110 -267,256 -149,145 -363,368 -535,561 -171,193 -299,359 -431,546 -131,187 -266,396 -434,667 -167,271 -365,604 -518,869 -153,266 -260,464 -349,596 -90,132 -163,199 -248,241 -85,42 -183,60 -271,69 -88,9 -169,9 -203,5 -35,-5 -25,-15 -8,-72 16,-57 39,-161 103,-384 64,-222 168,-563 275,-862 106,-298 214,-555 305,-761 90,-206 162,-361 268,-556 107,-195 247,-431 380,-624 133,-193 258,-343 393,-486 135,-143 279,-277 383,-363 104,-85 166,-122 225,-149 57,-27 110,-45 171,-54 61,-9 129,-9 197,1 67,11 132,31 197,64 65,34 128,81 184,131 55,50 100,104 135,144 34,40 56,66 69,86 13,20 17,34 -21,75l0 0zm6387 -598c-181,-1 -548,6 -733,10 -186,4 -192,4 -233,28 -42,24 -120,69 -211,147 -92,77 -196,186 -279,291 -83,104 -145,205 -220,373 -76,169 -165,405 -240,621 -76,216 -138,412 -201,612 -64,200 -129,404 -213,629 -83,225 -186,471 -270,656 -83,184 -147,308 -195,396 -48,89 -80,142 -109,183 -29,40 -55,67 -78,88 -24,21 -47,35 -60,45 -14,11 -21,16 -13,29 7,12 28,32 51,54 23,22 50,49 74,68 25,19 48,31 70,36 22,5 43,3 90,3 46,0 118,2 194,-7 77,-9 158,-28 245,-71 87,-42 179,-108 271,-189 91,-80 182,-177 298,-339 115,-162 256,-390 387,-620 131,-230 252,-462 375,-705 124,-242 249,-493 392,-775 144,-283 305,-595 436,-853 131,-258 230,-462 282,-569 52,-107 57,-117 61,-125 5,-8 10,-16 -171,-16l0 0zm-3073 4272c-32,-24 -112,-66 -202,-144 -90,-77 -191,-190 -292,-340 -101,-149 -203,-336 -284,-511 -80,-175 -139,-338 -200,-523 -61,-186 -123,-394 -199,-624 -75,-231 -163,-484 -249,-700 -87,-216 -173,-395 -257,-545 -84,-150 -166,-270 -255,-381 -89,-111 -186,-213 -254,-283 -68,-70 -108,-107 -141,-133 -34,-25 -62,-39 -115,-44 -53,-7 -132,-5 -299,-5 -167,1 -425,0 -567,-1 -142,-1 -169,-1 -192,-1 -23,0 -42,2 -37,15 5,12 34,35 94,87 60,53 150,134 234,228 85,93 164,199 245,322 80,123 161,263 234,406 72,143 134,289 195,437 63,148 125,298 178,429 53,130 97,241 163,409 66,168 154,393 225,563 70,170 124,284 195,415 70,130 158,277 233,388 75,111 138,184 205,251 66,66 136,125 202,172 66,47 128,81 176,104 48,22 82,31 137,37 56,5 132,7 273,7 142,1 348,0 458,-3 111,-3 128,-9 96,-32l0 0z"/>
     </g>
    </g>
   </g>
  </g>
 </g>
</svg>